<svg xmlns="http://www.w3.org/2000/svg" width="180.245" height="45.815" viewBox="0 0 180.245 45.815">
  <g id="Group_654" data-name="Group 654" transform="translate(-65.553 -43.421)">
    <g id="Group_652" data-name="Group 652" transform="translate(92.592 51.454)">
      <path id="Path_1620" data-name="Path 1620" d="M116.428,57.746c.041.065-.048.2-.057.295a.907.907,0,0,1,.2.315s.178.063.2.079c.052.036.095.082.143.122s.113.062.162.1a.666.666,0,0,1,.138.431.327.327,0,0,1-.043.194c-.025.038-.122.136-.174.126-.18-.031-.21-.133-.32-.245-.2.007-.326.163-.555.129a.949.949,0,0,0-.237.66,1.545,1.545,0,0,0-1.285.234,2.842,2.842,0,0,1-.9.343c-.47.3-1.244.984-2.052.382-.129-.1-.2-.3-.314-.452a5.6,5.6,0,0,1-.41-.479A1.99,1.99,0,0,1,110.987,58a2.916,2.916,0,0,1,1.464-.961c.021-.008.056-.095.078-.117a.638.638,0,0,1,.428-.092,2.247,2.247,0,0,1,.5.056,2.812,2.812,0,0,1,.94.416c.264-.09.494.15.834.261.067.021.143,0,.2.03.147.075.229.234.361.283A.505.505,0,0,0,116.428,57.746Z" transform="translate(-110.691 -56.831)" fill="#f26722" fill-rule="evenodd"/>
    </g>
    <g id="Group_653" data-name="Group 653" transform="translate(65.553 43.421)">
      <path id="Path_1621" data-name="Path 1621" d="M82.376,59.12a39.881,39.881,0,0,1,6.683-11.049c1.265-1.332,2.841-1.645,3.667-1.249.066.025.126.057.16.073a1.749,1.749,0,0,1,.186.088c.607.357,1.1.976,1.822,1.108a1.783,1.783,0,0,0,2-1.216,2.436,2.436,0,0,0-1.024-2.614,4.324,4.324,0,0,0-3.051-.818l-.052,0c-9.5.665-16.737,15.214-17.4,16.594a25.608,25.608,0,0,0-5.437,1.821,9.258,9.258,0,0,0-3.781,3.147c-.645,1.04-1.1,2.772.461,3.445a2.552,2.552,0,0,0,2.284-.512,17.909,17.909,0,0,1,2.642-1.652c.458-.226,1.084-.515,1.558-.7a8.793,8.793,0,0,0,.93-.41A45.368,45.368,0,0,0,72.29,80.682c.2,3.239,1.193,7.551,4.872,8.449,3.069.748,2.436-2.675,2.082-4.506A40.944,40.944,0,0,1,80.32,63.757,28.457,28.457,0,0,1,85.5,63.2c.727-.008,2.205-.054,2.611-1.223C88.959,59.526,84.662,58.876,82.376,59.12Z" transform="translate(-65.553 -43.421)" fill="#FFFFFF"/>
      <path id="Path_1622" data-name="Path 1622" d="M225.011,67.873a5.935,5.935,0,0,0-3.648-1.3,5.655,5.655,0,0,0-3.6,1.513,10.6,10.6,0,0,0-1.554,1.637c-.37.5-.711,1.027-1.073,1.535-.428.6-2.263,2.745-3.091,1.569-1.326-1.883,2.126-5.11-.943-6.415-1.782-.758-3.494.556-4.949,1.442-1.3.794-2.076,1.394-2.357-.349a1.445,1.445,0,0,0-2.006-1.057c-.87.436-.979,1.654-1.136,2.5-.4,2.137-.953,4.268-1.436,6.41a8.518,8.518,0,0,1-3.42,4.9c-.023.015-.039.027-.061.043-.1.048-.209.1-.315.143-1.683.715-3.981,1.475-5.831,1.136-1.995-.365-2.175-2.878-.307-3.918a13.408,13.408,0,0,1,2.375-.8,12.534,12.534,0,0,0,2.382-1.047c2.632-1.5,4.879-4.005,3.683-7.046-.781-1.986-3.181-2.519-5.068-2.168-.12.023-.243.048-.364.073a10.386,10.386,0,0,0-5.836,3.267,11.832,11.832,0,0,0-2.328,10.39,5.43,5.43,0,0,0,5.477,4.244,14.647,14.647,0,0,0,8.61-2.653,2.966,2.966,0,0,0,.491,2.179,1.6,1.6,0,0,0,2.627-.449c1.343-3.705,1.06-7.858,3.3-11.241a5.618,5.618,0,0,1,2.74-2.243c3.068-.96,1.182,3.757,1.644,5.117.554,1.626,2.99.805,4.04.263.152-.078.31-.167.469-.26a17.149,17.149,0,0,0-.392,1.979,38.225,38.225,0,0,0-.243,9.433A28.023,28.023,0,0,0,214,91.963c.9,2.826,2.948,5.625,6.257,4.943,1.64-.332.335-2.759-.044-3.574a33.135,33.135,0,0,1-3.114-11.7,5.75,5.75,0,0,0,2.732,2.24c2.432.986,4.7-.864,5.967-2.818C228.069,77.558,228.606,70.774,225.011,67.873ZM188.7,71.61a7.336,7.336,0,0,1,2.929-2.334c.939-.343,2.473-.507,3.114.5.927,1.461-.6,2.846-1.74,3.572-.151.1-.326.2-.521.314-1.178.678-3.033,1.5-4.05.541C187.768,73.586,188.208,72.224,188.7,71.61Zm35.563,4.262c-.241,1.214-1.328,3.814-2.847,3.7-1.963-.149-2.676-2.678-2.624-4.923.056-2.466,1.176-5.013,3.1-5.111,1.171-.062,1.96,1.493,2.227,2.428A8.673,8.673,0,0,1,224.261,75.873Z" transform="translate(-112.957 -52.551)" fill="#FFFFFF"/>
      <path id="Path_1623" data-name="Path 1623" d="M147.749,68.908a5.4,5.4,0,0,0-2.631-2.032,6.35,6.35,0,0,0-3.521-.058c-3.392,1.012-5.4,5.054-5.807,8.732-.488,1.672-1.559,4.06-3.8,4.965l-.125.052a1.748,1.748,0,0,1-1.818-.487c-.707-1.223,0-2.723.389-3.928a33.946,33.946,0,0,0,1.281-4.675,5.818,5.818,0,0,0-.273-3.966c-.95-1.59-3.2-.979-4.571-.415a17.17,17.17,0,0,0-1.907.941c-.5.284-1.151.656-1.734.371-.477-.233-.685-.911-.955-1.334-2.739-4.309-7.695,3.7-9,5.494a39.941,39.941,0,0,1-2.957,4.2c-.467.479-1.782,2-2.591,1.86-1.756-.315.577-6.04.909-6.922.2-.534.412-1.064.64-1.589a6.82,6.82,0,0,0,.676-2.4c.059-1.549-1.817-1.854-2.724-.808a7.693,7.693,0,0,0-.988,1.863,46.42,46.42,0,0,0-2.088,5.148,17.451,17.451,0,0,0-.693,3.026c-.373,2.786.045,6.422,3.716,6.286,1.931-.069,3.345-1.507,4.477-2.954v-.021c.084-.109.17-.217.25-.328,2.028-2.824,3.567-5.979,5.744-8.7.218-.273.725-1.1,1.1-1.165.791-.131-.31,1.963-.411,2.171-.784,1.611-1.5,3.474-2.174,5.136a13.994,13.994,0,0,0-.949,3.118c-.545,3.474,3.49,4.216,4.784-.539.812-2.981,1.641-5.963,3.842-8.245.689-.713,2.455-1.368,3.4-.9.975.488.231,1.864-.075,2.716-.734,2.043-1.675,3.982-1.428,6.222a4.826,4.826,0,0,0,1.812,3.353c2.209,1.575,5.63.894,7.573-.792a7.76,7.76,0,0,0,1.386-1.6,4.307,4.307,0,0,0,3.826,2.882,5.4,5.4,0,0,0,4.347-1.972,10.279,10.279,0,0,0,.863-1.39c.137-.256.278-.533.428-.808a31.985,31.985,0,0,1-5.218,13.7c-.494.752-2.16,3.02-.565,3.53,3.19,1.02,5.608-1.31,6.913-3.976a29,29,0,0,0,1.756-4.628,27.249,27.249,0,0,0,.892-4.6c.452-4.083.946-8.834-.884-12.662A11.235,11.235,0,0,0,147.749,68.908Zm-2.964,6.538c-.8,2.1-2.423,4.168-4.294,3.562-1.45-.471-1.469-3.289-1.232-4.5a8.66,8.66,0,0,1,1.619-3.558c.6-.765,1.921-1.9,2.981-1.4C145.6,70.363,145.667,73.145,144.785,75.447Z" transform="translate(-80.707 -52.402)" fill="#FFFFFF"/>
      <path id="Path_1624" data-name="Path 1624" d="M322.762,58.292a2.734,2.734,0,0,0-1.557-.17c-.111.008-.216.016-.314.02-1.18.049-2.351.046-3.526.028.025-.05.047-.1.072-.15a6.425,6.425,0,0,0,1.039-3.389,1.331,1.331,0,0,0-2.194-.95,7.885,7.885,0,0,0-2.366,3.633c-.116.27-.219.533-.329.8-.919-.016-1.837-.044-2.754-.115-.985-.076-1.962-.244-2.951-.282-.613-.023-1.483-.1-1.568.706a2.472,2.472,0,0,0,1.708,2.351,11.148,11.148,0,0,0,3.714.576c.208.007.422.022.637.038a64.125,64.125,0,0,0-1.9,7.317l-.012-.016s-.008.074-.027.2q-.112.548-.22,1.109c-.415,1.69-1.461,4.533-3.928,5.528l-.125.052a1.746,1.746,0,0,1-1.817-.487c-.707-1.223,0-2.723.388-3.928a33.952,33.952,0,0,0,1.282-4.675,5.821,5.821,0,0,0-.273-3.966c-.951-1.59-3.2-.979-4.572-.415a17.273,17.273,0,0,0-1.907.941c-.5.284-1.15.656-1.734.371-.478-.233-.685-.911-.955-1.334-2.74-4.309-7.7,3.7-9,5.494a40.1,40.1,0,0,1-2.957,4.2c-.467.479-1.783,2-2.592,1.86-1.757-.315.577-6.04.909-6.922.2-.534.411-1.064.64-1.589.513-1.179,1.5-3.806-.94-3.851-.849-.016-1.422.963-1.731,1.669a37.2,37.2,0,0,0-3.048,8.445c-.113.182-2.176,3.462-3.9,2.887,0,0-1.9-.734-.232-3.875s2.091-7.91-2.6-9.224c0,0-7.274-2.034-11.682,8.037-.88,2.015-1.829,4.81-.754,6.874,1.325,2.545,4.964,2.688,7.377,1.326a12.139,12.139,0,0,0,3.973-4.038,3.39,3.39,0,0,0,1.871,4.663c2.269.667,4.569-1.366,5.857-3.074.309,1.841,1.314,3.364,3.712,3.274,1.931-.069,3.344-1.507,4.477-2.954v-.021c.083-.109.17-.217.249-.328,2.029-2.824,3.566-5.979,5.743-8.7.219-.273.725-1.1,1.1-1.165.791-.131-.31,1.963-.41,2.171-.784,1.611-1.5,3.474-2.174,5.136A13.994,13.994,0,0,0,289.5,75.5c-.545,3.474,3.489,4.216,4.784-.539.812-2.981,1.64-5.963,3.84-8.245.69-.713,2.455-1.368,3.4-.9.975.488.231,1.864-.075,2.716-.734,2.043-1.676,3.982-1.428,6.222a4.822,4.822,0,0,0,1.811,3.353c2.21,1.575,5.631.894,7.574-.792a7.5,7.5,0,0,0,.681-.675,4.072,4.072,0,0,0,.377.862,3.4,3.4,0,0,0,4.417,1.264,13.383,13.383,0,0,0,5.243-4.052c1.027-1.319,2.906-4.182,1.778-5.944a1.3,1.3,0,0,0-1.7-.374c-.639.367-.89,1.145-1.281,1.724-.848,1.258-1.87,2.978-3.234,3.779A1.2,1.2,0,0,1,314,73.666c-1.018-1.2-.618-3.519-.4-4.923a30.037,30.037,0,0,1,2.177-7.12c.008-.019.017-.037.025-.056,1.083-.01,2.463-.063,2.707-.066a8.656,8.656,0,0,0,2.364-.267,2.923,2.923,0,0,0,2.157-2.027A.991.991,0,0,0,322.762,58.292Zm-53.4,11.51c-1.2,1.8-4.477,4.435-6.341,3.6C260,72.045,266.27,62,269.663,64.056,271.345,65.075,270.683,67.844,269.366,69.8Z" transform="translate(-142.797 -47.414)" fill="#FFFFFF"/>
    </g>
    <path id="Path_1625" data-name="Path 1625" d="M311.259,56.421c.108.1,0,.217.023.317.037.152.228.256.182.475a.33.33,0,0,0,.384.091c.065-.129-.014-.3.2-.295.052.194.241.223.476.182.09-.014-.012.067.022.136a.813.813,0,0,1,.271.226c.267-.155.418.1.567.2.014.166-.142.161-.2.249a3.1,3.1,0,0,1-.542-.113c-.029-.24-.486-.421-.612-.158.059.22.245.313.317.52a.349.349,0,0,1-.226.2,1.046,1.046,0,0,0-.565-.362c-.1.228-.1.748-.475.611,0-.41-.336-.64-.7-.362-.068.051-.092.184-.159.249s-.177.078-.249.136c-.115.093-.108.176-.2.181-.126.007-.209-.192-.34-.2s-.153.1-.295.181c-.1.057-.236.053-.294.09s-.095.15-.159.137c-.131-.066-.169-.223-.362-.227a4.207,4.207,0,0,1-.838.295c-.108.041-.2.15-.317.158-.21.015-.406-.13-.633-.023-.074.056-.089.168-.159.227-.5-.229-1.055.106-1.561.066-.084.03-.135.141-.25.159-.095.015-.24-.065-.317-.068-.27-.01-.65.177-1,.182-.29,0-.664.068-1.018.113-1.208.153-1.964,1.165-3.35.928a2.155,2.155,0,0,1-1.72-1.493,1.032,1.032,0,0,1-.045-.181,2.288,2.288,0,0,1,1.343-2.325,3.139,3.139,0,0,1,.875-.255,2.721,2.721,0,0,1,1.472.226c.412-.065.853.3,1.221.135a4.531,4.531,0,0,0,.837-.023c.139-.027.244-.122.385-.113.208.012.371.192.566.181.3-.017.437-.243.725-.295.3.1.734.373.906-.022.436-.163.607.218.949.068.066-.059-.039-.15.023-.2.3-.136.452.194.633.317a4.128,4.128,0,0,0,.793.09c.1-.056.121-.2.158-.317.215-.119.453.055.656.091.144-.038.225-.137.363-.182a1.006,1.006,0,0,0,.634.158.617.617,0,0,0,.632.159.549.549,0,0,0,.453.068C310.758,56.674,310.9,56.347,311.259,56.421Z" transform="translate(-92.843 -5.208)" fill="#f26722" fill-rule="evenodd"/>
  </g>
</svg>
